<?xml version="1.0" encoding="utf-8"?>
<!-- Generator: Adobe Illustrator 27.5.0, SVG Export Plug-In . SVG Version: 6.00 Build 0)  -->
<svg version="1.1" xmlns="http://www.w3.org/2000/svg" xmlns:xlink="http://www.w3.org/1999/xlink" x="0px" y="0px"
	 viewBox="0 0 600 600" style="enable-background:new 0 0 600 600;" xml:space="preserve">
<g id="background">
	<rect style="fill:#FFFFFF;" width="600" height="600"/>
</g>
<g id="objects">
	<g>
		<g>
			<linearGradient id="SVGID_1_" gradientUnits="userSpaceOnUse" x1="115.5136" y1="287.3162" x2="479.4109" y2="287.3162">
				<stop  offset="0" style="stop-color:#4FC646"/>
				<stop  offset="1" style="stop-color:#3FB06B"/>
			</linearGradient>
			<path style="fill:url(#SVGID_1_);" d="M353.197,294.78c-50.459,90.952-77.507,167.135-77.507,167.135
				c-58.381-104.379-160.176-143.636-160.176-143.636c85.374-3.148,147.314,42.191,147.314,42.191
				c57.706-106.096,150.132-211.587,216.583-247.752C479.411,112.718,401.521,207.677,353.197,294.78z"/>
		</g>
		
			<linearGradient id="SVGID_00000126301960946972685010000006850330349690105773_" gradientUnits="userSpaceOnUse" x1="59.8549" y1="279.3975" x2="540.9828" y2="328.5756">
			<stop  offset="0" style="stop-color:#4FC646"/>
			<stop  offset="1" style="stop-color:#3FB06B"/>
		</linearGradient>
		<path style="fill:url(#SVGID_00000126301960946972685010000006850330349690105773_);" d="M535.025,248.3
			c-6.026-24.43-15.862-47.93-29.004-69.438l-13.583,8.456c12.557,19.938,22.072,41.809,28.043,64.652
			c5.9,22.839,8.268,46.619,7.033,70.245c-2.462,47.104-19.864,94.208-49.495,131.029c-7.412,9.285-15.445,18.094-24.166,26.194
			c-8.763,8.049-18.105,15.467-27.941,22.184c0,0-7.486,4.874-7.487,4.874c-58.903,38.349-132.355,42.5-198.203,22.3
			c-2.867-0.88-5.641-2.017-8.439-3.09c-19.623-7.581-38.069-17.844-55.014-30.299c-9.647-7.165-18.684-15.135-27.162-23.658
			c-25.578-25.712-44.169-57.529-55.987-91.681c-3.684-11.483-6.602-23.221-8.578-35.139c-1.851-11.934-2.894-23.993-3.069-36.087
			c-0.198-24.181,3.293-48.415,10.443-71.565c7.132-23.154,17.901-45.206,31.776-65.131c13.866-19.932,30.826-37.738,50.105-52.586
			c7.387-5.694,15.117-10.948,23.131-15.735c32.38-18.196,60.376-25.746,68.857-25.012c0,0-45.794,13.391-74.186,41.103
			c0,0,14.276,22.087,42.626,16.767c33.44-6.27,37.04-40.79,81.68-59.83c0,0-32.33-31.95-75-25.13
			c-25.33,4.05-54.53,26.92-55.58,54.38c-0.063,1.412-0.024,2.776,0.093,4.098c-4.161,2.727-8.242,5.578-12.225,8.563
			c-19.562,14.644-36.877,32.321-51.134,52.228c-14.265,19.899-25.46,42.031-33.003,65.381
			c-7.561,23.346-11.448,47.892-11.582,72.476c0.009,12.295,0.901,24.584,2.623,36.772c1.847,12.172,4.658,24.188,8.262,35.969
			c10.566,34.536,30.552,68.484,56.091,94.692c8.551,8.836,17.691,17.125,27.472,24.611c19.444,14.882,41.75,27.893,65.155,35.452
			c72.224,23.328,150.08,15.081,214.435-25.569c10.397-6.891,20.296-14.532,29.605-22.854c9.266-8.373,17.834-17.506,25.759-27.164
			c7.966-9.635,15.021-20.011,21.348-30.799c3.256-5.347,6.044-10.956,8.895-16.528c13.881-27.127,21.328-59.648,23.868-90.335
			C543.145,298.066,540.987,272.748,535.025,248.3z"/>
	</g>
</g>
</svg>
